# xmcd
#
# Track frame offsets: 
#        150
#        21076
#        42635
#        59489
#        79356
#        102796
#        120472
#        140185
#        159447
#        176959
#
# Disc length: 2660 seconds
#
# Revision: 0
# Processed by: cddbd v1.5.2PL0 Copyright (c) Steve Scherf et al.
# Submitted via: ExactAudioCopy v1.0b2
#
DISCID=8e0a620a
DTITLE=Various Artist - Nhung ca khuc bat tu - Diep khuc tinh yeu
DYEAR=2003
DGENRE=Easy Listening
TTITLE0=Quang Dung - Tro ve mai nha xua
TTITLE1=Phi Thuy Hanh - Diep khuc tinh yeu
TTITLE2=Quang Minh ft My Dung - Bai tango tinh yeu
TTITLE3=Thu Giang - Chieu ta
TTITLE4=Xuan Phu - Giac mo hong
TTITLE5=Phi Thuy Hanh ft. Quang Minh - Khi ta doi muoi
TTITLE6=Quang Dung - Noi buon
TTITLE7=Thu Giang - Da khuc
TTITLE8=Xuan Phu - Khuc ca buon
TTITLE9=AC and M - Vai ao mau xanh
EXTD=
EXTT0=
EXTT1=
EXTT2=
EXTT3=
EXTT4=
EXTT5=
EXTT6=
EXTT7=
EXTT8=
EXTT9=
PLAYORDER=
